<?xml version="1.0" encoding="UTF-8" standalone="no"?>
<!-- Created with Inkscape (http://www.inkscape.org/) -->

<svg
   width="210mm"
   height="297mm"
   viewBox="0 0 210 297"
   version="1.1"
   id="svg5"
   inkscape:version="1.2.2 (b0a8486541, 2022-12-01)"
   sodipodi:docname="trebol.svg"
   xmlns:inkscape="http://www.inkscape.org/namespaces/inkscape"
   xmlns:sodipodi="http://sodipodi.sourceforge.net/DTD/sodipodi-0.dtd"
   xmlns="http://www.w3.org/2000/svg"
   xmlns:svg="http://www.w3.org/2000/svg">
  <sodipodi:namedview
     id="namedview7"
     pagecolor="#ffffff"
     bordercolor="#666666"
     borderopacity="1.0"
     inkscape:showpageshadow="2"
     inkscape:pageopacity="0.0"
     inkscape:pagecheckerboard="0"
     inkscape:deskcolor="#d1d1d1"
     inkscape:document-units="mm"
     showgrid="false"
     inkscape:zoom="0.85967312"
     inkscape:cx="398.40725"
     inkscape:cy="560.67823"
     inkscape:window-width="1870"
     inkscape:window-height="1131"
     inkscape:window-x="50"
     inkscape:window-y="32"
     inkscape:window-maximized="1"
     inkscape:current-layer="layer1" />
  <defs
     id="defs2" />
  <g
     inkscape:label="Layer 1"
     inkscape:groupmode="layer"
     id="layer1">
    <path
       style="fill:none;stroke:#000000;stroke-width:0.264583px;stroke-linecap:butt;stroke-linejoin:miter;stroke-opacity:1"
       d="m 65.863213,96.640413 c 0.923316,-1.231087 -37.403227,-34.064175 12.618651,-34.470466 48.830906,-0.396618 8.002074,33.854921 8.002074,33.854921 0,0 35.743222,-41.798295 38.471502,9.233162 2.25276,42.13707 -37.85596,12.00311 -37.240415,10.77202 0.615543,-1.23109 41.118795,32.45833 -7.078757,32.62383 -42.509015,0.14596 -14.157513,-32.62383 -14.157513,-32.62383 0,0 -31.94882,48.84262 -32.316062,-5.84767 -0.408831,-60.883698 31.70052,-13.541967 31.70052,-13.541967 z"
       id="path790"
       sodipodi:nodetypes="cscssscsc" />
    <path
       style="fill:#00ff00;stroke-width:4.68224;stroke-linejoin:bevel"
       d="m 284.41043,560.07102 c -33.03937,-2.64117 -54.92347,-12.57767 -63.19763,-28.69493 -9.21337,-17.94678 -1.574,-46.85533 20.48438,-77.51602 9.68002,-13.45504 11.10463,-15.90291 9.25514,-15.90291 -0.62508,0 -4.73785,5.09739 -9.13951,11.32754 -27.30437,38.64688 -57.86681,64.38075 -76.31388,64.25705 -8.39894,-0.0563 -17.72215,-7.05523 -22.86471,-17.16448 -11.0624,-21.74646 -15.51485,-75.88228 -10.49726,-127.63246 3.19005,-32.90144 11.84381,-56.48587 23.62252,-64.37944 12.88896,-8.63759 28.53796,-4.12011 50.99368,14.72062 9.38312,7.8726 26.56982,27.00748 36.98736,41.18001 2.21544,3.014 4.42066,5.50041 4.9005,5.52536 2.53389,0.13176 -0.31597,-4.25243 -11.31256,-17.40313 -30.32708,-36.26778 -40.828,-59.51549 -35.49181,-78.57447 4.08286,-14.58257 23.87257,-26.20194 52.32972,-30.72501 15.93703,-2.53308 45.16703,-3.65724 63.45034,-2.44024 46.53432,3.09747 68.48459,15.46139 68.23272,38.4334 -0.21193,19.3289 -13.36663,40.75073 -43.19892,70.34748 -9.00004,8.92897 -16.3637,16.64993 -16.3637,17.15768 0,2.56873 3.67905,-0.46052 19.01055,-15.65288 18.37582,-18.20905 30.09513,-27.26981 45.31777,-35.03734 31.36458,-16.00414 52.79736,-10.09814 66.52216,18.33078 8.14138,16.86372 12.58924,38.74067 14.09825,69.34285 2.63312,53.39868 -13.81567,81.45177 -47.73911,81.41814 -22.21071,-0.022 -55.43656,-13.85845 -74.44041,-30.99965 -9.78946,-8.82997 -16.26937,-13.10324 -17.70004,-11.67256 -1.351,1.351 6.37742,8.55707 17.03225,15.88105 17.51972,12.04284 36.33592,36.62709 42.0258,54.9087 7.27257,23.36682 -3.99732,38.54525 -34.39141,46.31876 -17.1566,4.38791 -48.99897,6.45381 -71.61219,4.6461 z"
       id="path957"
       transform="scale(0.26458333)" />
  </g>
</svg>
